{"title":"Give'em Hell, Malone.2009.SWESUB.DVDRip.XviD-Zen_Bud","uid":5742458,"size":1470528392,"categoryP":"video","categoryS":"movies","magnet":"?xt=urn:btih:ca4fa31e50b885349da830cfd219e50cf34813c8&amp;dn=Give%5C%27em+Hell%2C+Malone.2009.SWESUB.DVDRip.XviD-Zen_Bud&amp;tr=udp%3A%2F%2Ftracker.openbittorrent.com%3A80&amp;tr=udp%3A%2F%2Fopen.demonii.com%3A1337&amp;tr=udp%3A%2F%2Ftracker.coppersurfer.tk%3A6969&amp;tr=udp%3A%2F%2Fexodus.desync.com%3A6969","seeders":0,"leechers":0,"uploader":"Zen_Bud","files":-1,"time":1281084098,"description":"General\nComplete name                    : Give'em Hell,Malone.2009.avi\nFormat                           : AVI\nFile size                        : 1.37 GiB\nDuration                         : 1h 32mn\nOverall bit rate                 : 2 117 Kbps\n\nVideo\n\nFormat                           : MPEG-4 Visual\nCodec ID/Hint                    : XviD\nDuration                         : 1h 32mn\nBit rate                         : 1 992 Kbps\nWidth                            : 720 pixels\nHeight                           : 436 pixels\nDisplay aspect ratio             : 2.35:1\nStream size                      : 1.29 GiB (94%)\nWriting library                  : XviD 1.1.2 (UTC 2006-11-01)\n\nAudio\n\nFormat                           : MPEG Audio\nCodec ID/Hint                    : MP3\nDuration                         : 1h 32mn\nBit rate                         : 112 Kbps\nChannel(s)                       : 2 channels\nSampling rate                    : 48.0 KHz\nStream size                      : 74.2 MiB (5%)\nWriting library                  : LAME3.98\n\n","torrent":{"xt":"urn:btih:ca4fa31e50b885349da830cfd219e50cf34813c8","amp;dn":"Give%5C%27em+Hell%2C+Malone.2009.SWESUB.DVDRip.XviD-Zen_Bud","amp;tr":["udp%3A%2F%2Ftracker.openbittorrent.com%3A80","udp%3A%2F%2Fopen.demonii.com%3A1337","udp%3A%2F%2Ftracker.coppersurfer.tk%3A6969","udp%3A%2F%2Fexodus.desync.com%3A6969"],"infoHash":"ca4fa31e50b885349da830cfd219e50cf34813c8","infoHashBuffer":{"type":"Buffer","data":[202,79,163,30,80,184,133,52,157,168,48,207,210,25,229,12,243,72,19,200]},"announce":[],"urlList":[]}}